<svg version="1.1" xmlns="http://www.w3.org/2000/svg" xmlns:xlink="http://www.w3.org/1999/xlink" width="1316" height="807.5"><style xmlns="http://www.w3.org/1999/xhtml"></style><defs/><g transform="translate(0,0)"><g><rect fill="#FFFFFF" stroke="none" x="0" y="0" width="1316" height="807.5"/></g><g transform="translate(0,0) matrix(1,0,0,1,110,97.50000000000006)"><g><g transform="translate(0,0) scale(9.8,6.9)"><g><path fill="#FFFFFF" stroke="none" d="M 0 0 L 100 0 Q 100 0 100 0 L 100 100 Q 100 100 100 100 L 0 100 Q 0 100 0 100 L 0 0 Q 0 0 0 0 Z"/><g transform="scale(0.1020408163265306,0.14492753623188406)"><path fill="none" stroke="none" d="M 0 0 L 980.0000000000001 0 Q 980.0000000000001 0 980.0000000000001 0 L 980.0000000000001 690 Q 980.0000000000001 690 980.0000000000001 690 L 0 690 Q 0 690 0 690 L 0 0 Q 0 0 0 0 Z"/><path fill="none" stroke="#333333" d="M 0 0 M 0 0 L 980.0000000000001 0 Q 980.0000000000001 0 980.0000000000001 0 L 980.0000000000001 690 Q 980.0000000000001 690 980.0000000000001 690 L 0 690 Q 0 690 0 690 L 0 0 Q 0 0 0 0 Z" stroke-miterlimit="10" stroke-width="2"/></g></g></g></g></g><g transform="matrix(1,0,0,1,120,764)"><g transform="translate(0,0) matrix(1,0,0,1,0,0) translate(0,0)"><g><rect fill="rgb(0,0,0)" stroke="none" x="0" y="0" width="961" height="16" fill-opacity="0"/></g></g><g transform="translate(0,0) matrix(1,0,0,1,0,0) translate(0,0)"><g><rect fill="rgb(0,0,0)" stroke="none" x="0" y="0" width="961" height="16" fill-opacity="0"/></g></g><g transform="translate(0,0) matrix(1,0,0,1,0,0) translate(0,0)"><g><rect fill="rgb(0,0,0)" stroke="none" x="0" y="0" width="300" height="16" fill-opacity="0"/></g></g><g transform="translate(0,0) matrix(1,0,0,1,0,0) translate(0,0)"><g><rect fill="rgb(0,0,0)" stroke="none" x="0" y="0" width="300" height="16" fill-opacity="0"/></g><text fill="rgb(0, 0, 0)" stroke="none" font-family="Arial" font-size="14px" font-style="normal" font-weight="bold" text-decoration="" line-height="16.5px" x="0" y="13">WINDOWS</text><text fill="rgb(0, 0, 0)" stroke="none" font-family="Arial" font-size="14px" font-style="normal" font-weight="bold" text-decoration="" line-height="16.5px" x="74" y="13">ADMINSTRATOR</text><text fill="rgb(0, 0, 0)" stroke="none" font-family="Arial" font-size="14px" font-style="normal" font-weight="bold" text-decoration="" line-height="16.5px" x="187" y="13"> +</text><text fill="rgb(0, 0, 0)" stroke="none" font-family="Arial" font-size="14px" font-style="normal" font-weight="bold" text-decoration="" line-height="16.5px" x="203" y="13">LIcenced</text><text fill="rgb(0, 0, 0)" stroke="none" font-family="Arial" font-size="14px" font-style="normal" font-weight="bold" text-decoration="" line-height="16.5px" x="270" y="13">user</text></g></g><g transform="translate(0,0) matrix(1,0,0,1,210,265)"><g><g transform="translate(0,0) scale(1.8,0.4)"><g><path fill="#FFFFFF" stroke="none" d="M 0 0 L 100 0 Q 100 0 100 0 L 100 100 Q 100 100 100 100 L 0 100 Q 0 100 0 100 L 0 0 Q 0 0 0 0 Z"/><g transform="scale(0.5555555555555556,2.5)"><path fill="none" stroke="none" d="M 0 0 L 180 0 Q 180 0 180 0 L 180 40 Q 180 40 180 40 L 0 40 Q 0 40 0 40 L 0 0 Q 0 0 0 0 Z"/><path fill="none" stroke="#333333" d="M 0 0 M 0 0 L 180 0 Q 180 0 180 0 L 180 40 Q 180 40 180 40 L 0 40 Q 0 40 0 40 L 0 0 Q 0 0 0 0 Z" stroke-miterlimit="10" stroke-width="2"/></g></g></g></g></g><g transform="matrix(1,0,0,1,222,271)"><g transform="translate(140,42) matrix(1,0,0,1,0,0) translate(-140,-42)"><g><rect fill="rgb(0,0,0)" stroke="none" x="0" y="0" width="158" height="28" fill-opacity="0"/></g></g><g transform="translate(140,42) matrix(1,0,0,1,0,0) translate(-140,-42)"><g><rect fill="rgb(0,0,0)" stroke="none" x="0" y="0" width="158" height="14" fill-opacity="0"/></g></g><g transform="translate(140,42) matrix(1,0,0,1,0,0) translate(-140,-42)"><g><rect fill="rgb(0,0,0)" stroke="none" x="35" y="0" width="89" height="14" fill-opacity="0"/></g></g><g transform="translate(140,42) matrix(1,0,0,1,0,0) translate(-140,-42)"><g><rect fill="rgb(0,0,0)" stroke="none" x="35" y="0" width="89" height="14" fill-opacity="0"/></g><text fill="rgb(0, 0, 0)" stroke="none" font-family="Arial" font-size="12px" font-style="normal" font-weight="normal" text-decoration="" line-height="14px" x="35" y="11">Window</text><text fill="rgb(0, 0, 0)" stroke="none" font-family="Arial" font-size="12px" font-style="normal" font-weight="normal" text-decoration="" line-height="14px" x="82" y="11">Service</text></g><g transform="translate(140,42) matrix(1,0,0,1,0,0) translate(-140,-42)"><g><rect fill="rgb(0,0,0)" stroke="none" x="0" y="14" width="158" height="14" fill-opacity="0"/></g></g><g transform="translate(140,42) matrix(1,0,0,1,0,0) translate(-140,-42)"><g><rect fill="rgb(0,0,0)" stroke="none" x="35" y="14" width="88" height="14" fill-opacity="0"/></g></g><g transform="translate(140,42) matrix(1,0,0,1,0,0) translate(-140,-42)"><g><rect fill="rgb(0,0,0)" stroke="none" x="35" y="14" width="88" height="14" fill-opacity="0"/></g><text fill="rgb(0, 0, 0)" stroke="none" font-family="Arial" font-size="12px" font-style="normal" font-weight="normal" text-decoration="" line-height="14px" x="35" y="25">Network</text><text fill="rgb(0, 0, 0)" stroke="none" font-family="Arial" font-size="12px" font-style="normal" font-weight="normal" text-decoration="" line-height="14px" x="83" y="25">Engine</text></g></g><g transform="translate(0,0) matrix(1,0,0,1,680,615)"><g><g transform="translate(0,0) scale(1,0.75)"><g><g transform="scale(1,1.3333333333333333)"><path fill="#FFFFFF" stroke="none" d="M 100 0 L 100 65.625 Q 100 75 50 75 Q 0 75 0 65.625 L 0 0 Q 0 -9.375 50 -9.375 Q 100 -9.375 100 0"/><path fill="none" stroke="#333333" d="M 100 0 M 100 0 L 100 65.625 Q 100 75 50 75 Q 0 75 0 65.625 L 0 0 Q 0 -9.375 50 -9.375 Q 100 -9.375 100 0" stroke-miterlimit="10" stroke-width="2"/></g></g><g><g transform="scale(1,1.3333333333333333)"><path fill="rgb(0,0,0)" stroke="none" d="M 0 0 Q 0 9.375 50 9.375 Q 100 9.375 100 0 M 0 4.6875 Q 0 14.0625 50 14.0625 Q 100 14.0625 100 4.6875 M 0 9.375 Q 0 18.75 50 18.75 Q 100 18.75 100 9.375" fill-opacity="0"/><path fill="none" stroke="#333333" d="M 0 0 M 0 0 Q 0 9.375 50 9.375 Q 100 9.375 100 0 M 0 4.6875 Q 0 14.0625 50 14.0625 Q 100 14.0625 100 4.6875 M 0 9.375 Q 0 18.75 50 18.75 Q 100 18.75 100 9.375" stroke-miterlimit="10"/></g></g></g></g></g><g transform="matrix(1,0,0,1,690,646)"><g transform="translate(28,0) matrix(1,0,0,1,0,0) translate(-28,0)"><g><rect fill="rgb(0,0,0)" stroke="none" x="0" y="0" width="81" height="14" fill-opacity="0"/></g></g><g transform="translate(28,0) matrix(1,0,0,1,0,0) translate(-28,0)"><g><rect fill="rgb(0,0,0)" stroke="none" x="0" y="0" width="81" height="14" fill-opacity="0"/></g></g><g transform="translate(28,0) matrix(1,0,0,1,0,0) translate(-28,0)"><g><rect fill="rgb(0,0,0)" stroke="none" x="14" y="0" width="53" height="14" fill-opacity="0"/></g></g><g transform="translate(28,0) matrix(1,0,0,1,0,0) translate(-28,0)"><g><rect fill="rgb(0,0,0)" stroke="none" x="14" y="0" width="53" height="14" fill-opacity="0"/></g><text fill="rgb(0, 0, 0)" stroke="none" font-family="Arial" font-size="12px" font-style="normal" font-weight="normal" text-decoration="" line-height="14px" x="14" y="11">Database</text></g></g><g transform="matrix(1,0,0,1,525.5,433)"><g transform="translate(0,0)"><g transform="translate(-419,-371) translate(-106.5,-62) matrix(1,0,0,1,0,0)"><g><path fill="none" stroke="#000000" d="M 530 437.5 L 595 437.5 Q 605 437.5 605 447.5 L 605 642.5 Q 605 652.5 615 652.5 L 680 652.5" stroke-miterlimit="10" stroke-width="2"/></g></g></g></g><g transform="translate(0,0) matrix(1,0,0,1,780,250)"><g><g transform="translate(0,0) scale(1.6,0.55)"><g><path fill="#FFFFFF" stroke="none" d="M 0 0 L 100 0 Q 100 0 100 0 L 100 100 Q 100 100 100 100 L 0 100 Q 0 100 0 100 L 0 0 Q 0 0 0 0 Z"/><g transform="scale(0.625,1.8181818181818181)"><path fill="none" stroke="none" d="M 0 0 L 160 0 Q 160 0 160 0 L 160 55.00000000000001 Q 160 55.00000000000001 160 55.00000000000001 L 0 55.00000000000001 Q 0 55.00000000000001 0 55.00000000000001 L 0 0 Q 0 0 0 0 Z"/><path fill="none" stroke="#333333" d="M 0 0 M 0 0 L 160 0 Q 160 0 160 0 L 160 55.00000000000001 Q 160 55.00000000000001 160 55.00000000000001 L 0 55.00000000000001 Q 0 55.00000000000001 0 55.00000000000001 L 0 0 Q 0 0 0 0 Z" stroke-miterlimit="10" stroke-width="2"/></g></g></g></g></g><g transform="matrix(1,0,0,1,791,264)"><g transform="translate(122,56) matrix(1,0,0,1,0,0) translate(-122,-56)"><g><rect fill="rgb(0,0,0)" stroke="none" x="0" y="0" width="139" height="28" fill-opacity="0"/></g></g><g transform="translate(122,56) matrix(1,0,0,1,0,0) translate(-122,-56)"><g><rect fill="rgb(0,0,0)" stroke="none" x="0" y="0" width="139" height="14" fill-opacity="0"/></g></g><g transform="translate(122,56) matrix(1,0,0,1,0,0) translate(-122,-56)"><g><rect fill="rgb(0,0,0)" stroke="none" x="25" y="0" width="89" height="14" fill-opacity="0"/></g></g><g transform="translate(122,56) matrix(1,0,0,1,0,0) translate(-122,-56)"><g><rect fill="rgb(0,0,0)" stroke="none" x="25" y="0" width="89" height="14" fill-opacity="0"/></g><text fill="rgb(0, 0, 0)" stroke="none" font-family="Arial" font-size="12px" font-style="normal" font-weight="normal" text-decoration="" line-height="14px" x="25" y="11">Window</text><text fill="rgb(0, 0, 0)" stroke="none" font-family="Arial" font-size="12px" font-style="normal" font-weight="normal" text-decoration="" line-height="14px" x="72" y="11">Service</text></g><g transform="translate(122,56) matrix(1,0,0,1,0,0) translate(-122,-56)"><g><rect fill="rgb(0,0,0)" stroke="none" x="0" y="14" width="139" height="14" fill-opacity="0"/></g></g><g transform="translate(122,56) matrix(1,0,0,1,0,0) translate(-122,-56)"><g><rect fill="rgb(0,0,0)" stroke="none" x="23" y="14" width="4" height="14" fill-opacity="0"/></g></g><g transform="translate(122,56) matrix(1,0,0,1,0,0) translate(-122,-56)"><g><rect fill="rgb(0,0,0)" stroke="none" x="23" y="14" width="4" height="14" fill-opacity="0"/></g></g><g transform="translate(122,56) matrix(1,0,0,1,0,0) translate(-122,-56)"><g><rect fill="rgb(0,0,0)" stroke="none" x="26" y="14" width="90" height="14" fill-opacity="0"/></g><text fill="rgb(0, 0, 0)" stroke="none" font-family="Arial" font-size="12px" font-style="normal" font-weight="normal" text-decoration="" line-height="14px" x="26" y="25">Machine</text><text fill="rgb(0, 0, 0)" stroke="none" font-family="Arial" font-size="12px" font-style="normal" font-weight="normal" text-decoration="" line-height="14px" x="76" y="25">Engine</text></g></g><g transform="translate(0,0) matrix(1,0,0,1,430,400)"><g><g transform="translate(0,0) scale(1,0.75)"><g><g transform="scale(1,1.3333333333333333)"><path fill="#FFFFFF" stroke="none" d="M 0 0 L 100 0 L 100 75 L 0 75 L 0 0 Z M 10 0 L 10 75 M 90 0 L 90 75 Z"/><path fill="none" stroke="#333333" d="M 0 0 M 0 0 L 100 0 L 100 75 L 0 75 L 0 0 Z M 10 0 L 10 75 M 90 0 L 90 75 Z" stroke-miterlimit="10" stroke-width="2"/></g></g></g></g></g><g transform="matrix(1,0,0,1,440,417)"><g transform="translate(8,0) matrix(1,0,0,1,0,0) translate(-8,0)"><g><rect fill="rgb(0,0,0)" stroke="none" x="0" y="0" width="81" height="42" fill-opacity="0"/></g></g><g transform="translate(8,0) matrix(1,0,0,1,0,0) translate(-8,0)"><g><rect fill="rgb(0,0,0)" stroke="none" x="0" y="0" width="81" height="42" fill-opacity="0"/></g></g><g transform="translate(8,0) matrix(1,0,0,1,0,0) translate(-8,0)"><g><rect fill="rgb(0,0,0)" stroke="none" x="4" y="0" width="73" height="42" fill-opacity="0"/></g></g><g transform="translate(8,0) matrix(1,0,0,1,0,0) translate(-8,0)"><g><rect fill="rgb(0,0,0)" stroke="none" x="4" y="0" width="73" height="42" fill-opacity="0"/></g><text fill="rgb(0, 0, 0)" stroke="none" font-family="Arial" font-size="12px" font-style="normal" font-weight="normal" text-decoration="" line-height="14px" x="4" y="11">Schedule</text><text fill="rgb(0, 0, 0)" stroke="none" font-family="Arial" font-size="12px" font-style="normal" font-weight="normal" text-decoration="" line-height="14px" x="59" y="11">run</text><text fill="rgb(0, 0, 0)" stroke="none" font-family="Arial" font-size="12px" font-style="normal" font-weight="normal" text-decoration="" line-height="14px" x="17" y="25">to</text><text fill="rgb(0, 0, 0)" stroke="none" font-family="Arial" font-size="12px" font-style="normal" font-weight="normal" text-decoration="" line-height="14px" x="30" y="25">collect</text><text fill="rgb(0, 0, 0)" stroke="none" font-family="Arial" font-size="12px" font-style="normal" font-weight="normal" text-decoration="" line-height="14px" x="8" y="39">network</text><text fill="rgb(0, 0, 0)" stroke="none" font-family="Arial" font-size="12px" font-style="normal" font-weight="normal" text-decoration="" line-height="14px" x="54" y="39">info</text></g></g><g transform="matrix(1,0,0,1,295.5,300.5)"><g transform="translate(0,0)"><g transform="translate(-300,-327) translate(4.5,26.5) matrix(1,0,0,1,0,0)"><g><path fill="none" stroke="#000000" d="M 300 305 L 300 328.1666666666667 Q 300 338.1666666666667 300 348.1666666666667 L 300 361.3333333333333 Q 300 371.3333333333333 300 381.3333333333333 L 300 404.5" stroke-miterlimit="10" stroke-width="2"/></g></g></g></g><g transform="matrix(1,0,0,1,775.5,580.5)"><g transform="translate(0,0)"><g transform="translate(-589,-426) translate(-186.5,-154.5) matrix(1,0,0,1,0,0)"><g><path fill="none" stroke="#000000" d="M 860 585 L 860 642.5 Q 860 652.5 850 652.5 L 780 652.5" stroke-miterlimit="10" stroke-width="2"/></g></g></g></g><g transform="translate(0,0) matrix(1,0,0,1,250,404.5)"><g><g transform="translate(0,0) scale(1,0.5800000000000001)"><g><g transform="scale(1,1.7241379310344827)"><path fill="#FFFFFF" stroke="none" d="M 50 0 L 100 29.000000000000004 L 50 58.00000000000001 L 0 29.000000000000004 L 50 0 Z"/><path fill="none" stroke="#333333" d="M 50 0 M 50 0 L 100 29.000000000000004 L 50 58.00000000000001 L 0 29.000000000000004 L 50 0 Z" stroke-miterlimit="10" stroke-width="2"/></g></g></g></g></g><g transform="matrix(1,0,0,1,260,427)"><g transform="translate(38,0) matrix(1,0,0,1,0,0) translate(-38,0)"><g><rect fill="rgb(0,0,0)" stroke="none" x="0" y="0" width="81" height="14" fill-opacity="0"/></g></g><g transform="translate(38,0) matrix(1,0,0,1,0,0) translate(-38,0)"><g><rect fill="rgb(0,0,0)" stroke="none" x="0" y="0" width="81" height="14" fill-opacity="0"/></g></g><g transform="translate(38,0) matrix(1,0,0,1,0,0) translate(-38,0)"><g><rect fill="rgb(0,0,0)" stroke="none" x="19" y="0" width="45" height="14" fill-opacity="0"/></g></g><g transform="translate(38,0) matrix(1,0,0,1,0,0) translate(-38,0)"><g><rect fill="rgb(0,0,0)" stroke="none" x="19" y="0" width="45" height="14" fill-opacity="0"/></g><text fill="rgb(0, 0, 0)" stroke="none" font-family="Arial" font-size="12px" font-style="normal" font-weight="normal" text-decoration="" line-height="14px" x="19" y="11">SCCMS</text></g></g><g transform="translate(0,0) matrix(1,0,0,1,580,35)"><g><g transform="translate(0,0) scale(1,0.5)"><g><g transform="scale(1,2)"><path fill="#FFFFFF" stroke="none" d="M 25 0 L 75 0 C 88.80711874576984 0 100 11.19288125423016 100 25 C 100 38.80711874576984 88.80711874576984 50 75 50 L 25 50 C 11.19288125423016 50 0 38.80711874576984 0 25 C 0 11.19288125423016 11.19288125423016 0 25 0 Z"/><path fill="none" stroke="#333333" d="M 25 0 M 25 0 L 75 0 C 88.80711874576984 0 100 11.19288125423016 100 25 C 100 38.80711874576984 88.80711874576984 50 75 50 L 25 50 C 11.19288125423016 50 0 38.80711874576984 0 25 C 0 11.19288125423016 11.19288125423016 0 25 0 Z" stroke-miterlimit="10" stroke-width="2"/></g></g></g></g></g><g transform="matrix(1,0,0,1,590,53)"><g transform="translate(56,0) matrix(1,0,0,1,0,0) translate(-56,0)"><g><rect fill="rgb(0,0,0)" stroke="none" x="0" y="0" width="81" height="14" fill-opacity="0"/></g></g><g transform="translate(56,0) matrix(1,0,0,1,0,0) translate(-56,0)"><g><rect fill="rgb(0,0,0)" stroke="none" x="0" y="0" width="81" height="14" fill-opacity="0"/></g></g><g transform="translate(56,0) matrix(1,0,0,1,0,0) translate(-56,0)"><g><rect fill="rgb(0,0,0)" stroke="none" x="28" y="0" width="25" height="14" fill-opacity="0"/></g></g><g transform="translate(56,0) matrix(1,0,0,1,0,0) translate(-56,0)"><g><rect fill="rgb(0,0,0)" stroke="none" x="28" y="0" width="25" height="14" fill-opacity="0"/></g><text fill="rgb(0, 0, 0)" stroke="none" font-family="Arial" font-size="12px" font-style="normal" font-weight="normal" text-decoration="" line-height="14px" x="28" y="11">Start</text></g></g><g transform="translate(0,0) matrix(1,0,0,1,680,730)"><g><g transform="translate(0,0) scale(1,0.5)"><g><g transform="scale(1,2)"><path fill="#FFFFFF" stroke="none" d="M 25 0 L 75 0 C 88.80711874576984 0 100 11.19288125423016 100 25 C 100 38.80711874576984 88.80711874576984 50 75 50 L 25 50 C 11.19288125423016 50 0 38.80711874576984 0 25 C 0 11.19288125423016 11.19288125423016 0 25 0 Z"/><path fill="none" stroke="#333333" d="M 25 0 M 25 0 L 75 0 C 88.80711874576984 0 100 11.19288125423016 100 25 C 100 38.80711874576984 88.80711874576984 50 75 50 L 25 50 C 11.19288125423016 50 0 38.80711874576984 0 25 C 0 11.19288125423016 11.19288125423016 0 25 0 Z" stroke-miterlimit="10" stroke-width="2"/></g></g></g></g></g><g transform="matrix(1,0,0,1,690,748)"><g transform="translate(60,0) matrix(1,0,0,1,0,0) translate(-60,0)"><g><rect fill="rgb(0,0,0)" stroke="none" x="0" y="0" width="81" height="14" fill-opacity="0"/></g></g><g transform="translate(60,0) matrix(1,0,0,1,0,0) translate(-60,0)"><g><rect fill="rgb(0,0,0)" stroke="none" x="0" y="0" width="81" height="14" fill-opacity="0"/></g></g><g transform="translate(60,0) matrix(1,0,0,1,0,0) translate(-60,0)"><g><rect fill="rgb(0,0,0)" stroke="none" x="30" y="0" width="23" height="14" fill-opacity="0"/></g></g><g transform="translate(60,0) matrix(1,0,0,1,0,0) translate(-60,0)"><g><rect fill="rgb(0,0,0)" stroke="none" x="30" y="0" width="23" height="14" fill-opacity="0"/></g><text fill="rgb(0, 0, 0)" stroke="none" font-family="Arial" font-size="12px" font-style="normal" font-weight="normal" text-decoration="" line-height="14px" x="30" y="11">End</text></g></g><g transform="translate(0,0) matrix(1,0,0,1,130,607.5)"><g><g transform="translate(0,0) scale(0.95,0.9)"><g><g transform="scale(1.0526315789473684,1.1111111111111112)"><path fill="#FFFFFF" stroke="none" d="M 0 0 L 95 0 L 95 90 L 0 90 L 0 0 Z M 9.999999999999998 0 L 9.999999999999998 90 M 0 10 L 95 10"/><path fill="none" stroke="#333333" d="M 0 0 M 0 0 L 95 0 L 95 90 L 0 90 L 0 0 Z M 9.999999999999998 0 L 9.999999999999998 90 M 0 10 L 95 10" stroke-miterlimit="10" stroke-width="2"/></g></g></g></g></g><g transform="matrix(1,0,0,1,140,618)"><g transform="translate(52,0) matrix(1,0,0,1,0,0) translate(-52,0)"><g><rect fill="rgb(0,0,0)" stroke="none" x="0" y="0" width="76" height="70" fill-opacity="0"/></g></g><g transform="translate(52,0) matrix(1,0,0,1,0,0) translate(-52,0)"><g><rect fill="rgb(0,0,0)" stroke="none" x="0" y="0" width="76" height="70" fill-opacity="0"/></g></g><g transform="translate(52,0) matrix(1,0,0,1,0,0) translate(-52,0)"><g><rect fill="rgb(0,0,0)" stroke="none" x="26" y="0" width="64" height="70" fill-opacity="0"/></g></g><g transform="translate(52,0) matrix(1,0,0,1,0,0) translate(-52,0)"><g><rect fill="rgb(0,0,0)" stroke="none" x="26" y="0" width="64" height="70" fill-opacity="0"/></g><text fill="rgb(0, 0, 0)" stroke="none" font-family="Arial" font-size="12px" font-style="normal" font-weight="normal" text-decoration="" line-height="14px" x="26" y="11">GET</text><text fill="rgb(0, 0, 0)" stroke="none" font-family="Arial" font-size="12px" font-style="normal" font-weight="normal" text-decoration="" line-height="14px" x="7" y="25">Connection</text><text fill="rgb(0, 0, 0)" stroke="none" font-family="Arial" font-size="12px" font-style="normal" font-weight="normal" text-decoration="" line-height="14px" x="17" y="39">string</text><text fill="rgb(0, 0, 0)" stroke="none" font-family="Arial" font-size="12px" font-style="normal" font-weight="normal" text-decoration="" line-height="14px" x="50" y="39">of</text><text fill="rgb(0, 0, 0)" stroke="none" font-family="Arial" font-size="12px" font-style="normal" font-weight="normal" text-decoration="" line-height="14px" x="20" y="53">SCCM</text><text fill="rgb(0, 0, 0)" stroke="none" font-family="Arial" font-size="12px" font-style="normal" font-weight="normal" text-decoration="" line-height="14px" x="13" y="67">database</text></g></g><g transform="translate(0,0) matrix(1,0,0,1,250,607.5)"><g><g transform="translate(0,0) scale(1,0.9)"><g><g transform="scale(1,1.1111111111111112)"><path fill="#FFFFFF" stroke="none" d="M 0 0 L 100 0 L 100 90 L 0 90 L 0 0 Z M 10 0 L 10 90 M 90 0 L 90 90 Z"/><path fill="none" stroke="#333333" d="M 0 0 M 0 0 L 100 0 L 100 90 L 0 90 L 0 0 Z M 10 0 L 10 90 M 90 0 L 90 90 Z" stroke-miterlimit="10" stroke-width="2"/></g></g></g></g></g><g transform="matrix(1,0,0,1,260,618)"><g transform="translate(44,0) matrix(1,0,0,1,0,0) translate(-44,0)"><g><rect fill="rgb(0,0,0)" stroke="none" x="0" y="0" width="81" height="70" fill-opacity="0"/></g></g><g transform="translate(44,0) matrix(1,0,0,1,0,0) translate(-44,0)"><g><rect fill="rgb(0,0,0)" stroke="none" x="0" y="0" width="81" height="70" fill-opacity="0"/></g></g><g transform="translate(44,0) matrix(1,0,0,1,0,0) translate(-44,0)"><g><rect fill="rgb(0,0,0)" stroke="none" x="22" y="0" width="63" height="70" fill-opacity="0"/></g></g><g transform="translate(44,0) matrix(1,0,0,1,0,0) translate(-44,0)"><g><rect fill="rgb(0,0,0)" stroke="none" x="22" y="0" width="63" height="70" fill-opacity="0"/></g><text fill="rgb(0, 0, 0)" stroke="none" font-family="Arial" font-size="12px" font-style="normal" font-weight="normal" text-decoration="" line-height="14px" x="22" y="11">Collect</text><text fill="rgb(0, 0, 0)" stroke="none" font-family="Arial" font-size="12px" font-style="normal" font-weight="normal" text-decoration="" line-height="14px" x="18" y="25">Network</text><text fill="rgb(0, 0, 0)" stroke="none" font-family="Arial" font-size="12px" font-style="normal" font-weight="normal" text-decoration="" line-height="14px" x="17" y="39">machine</text><text fill="rgb(0, 0, 0)" stroke="none" font-family="Arial" font-size="12px" font-style="normal" font-weight="normal" text-decoration="" line-height="14px" x="10" y="53">information</text><text fill="rgb(0, 0, 0)" stroke="none" font-family="Arial" font-size="12px" font-style="normal" font-weight="normal" text-decoration="" line-height="14px" x="9" y="67">from</text><text fill="rgb(0, 0, 0)" stroke="none" font-family="Arial" font-size="12px" font-style="normal" font-weight="normal" text-decoration="" line-height="14px" x="36" y="67">SCCM</text></g></g><g transform="matrix(1,0,0,1,295.5,458)"><g transform="translate(0,0)"><g transform="translate(-303,-412) translate(7.5,-46) matrix(1,0,0,1,0,0)"><g><path fill="none" stroke="#000000" d="M 300 462.5 L 300 500.8333333333333 Q 300 510.8333333333333 300 520.8333333333333 L 300 549.1666666666666 Q 300 559.1666666666666 300 569.1666666666666 L 300 607.5" stroke-miterlimit="10" stroke-width="2"/></g></g></g></g><g transform="matrix(1,0,0,1,288,518)"><g transform="translate(6,0) matrix(1,0,0,1,0,0) translate(-6,0)"><path fill="none" stroke="none" d="M 0 0 L 26 0 L 26 14 L 0 14 Z"/><g><rect fill="rgb(255, 255, 255)" stroke="none" x="0" y="0" width="26" height="14"/></g></g><g transform="translate(6,0) matrix(1,0,0,1,0,0) translate(-6,0)"><path fill="none" stroke="none" d="M 0 0 L 26 0 L 26 14 L 0 14 Z"/><g><rect fill="rgb(0,0,0)" stroke="none" x="0" y="0" width="26" height="14" fill-opacity="0"/></g></g><g transform="translate(6,0) matrix(1,0,0,1,0,0) translate(-6,0)"><path fill="none" stroke="none" d="M 3 0 L 23 0 L 23 14 L 3 14 Z"/><g><rect fill="rgb(0,0,0)" stroke="none" x="3" y="0" width="20" height="14" fill-opacity="0"/></g></g><g transform="translate(6,0) matrix(1,0,0,1,0,0) translate(-6,0)"><path fill="none" stroke="none" d="M 3 0 L 23 0 L 23 14 L 3 14 Z"/><g><rect fill="rgb(0,0,0)" stroke="none" x="3" y="0" width="20" height="14" fill-opacity="0"/></g><text fill="rgb(0, 0, 0)" stroke="none" font-family="Arial" font-size="12px" font-style="normal" font-weight="normal" text-decoration="" line-height="14px" x="3" y="11">Yes</text></g></g><g transform="matrix(1,0,0,1,345.5,429)"><g transform="translate(0,0)"><g transform="translate(-349,-358) translate(3.5,-71) matrix(1,0,0,1,0,0)"><g><path fill="none" stroke="#000000" d="M 350 433.5 L 366.69997919266774 433.5 Q 376.69997919266774 433.5 386.69997919266774 433.5 L 393.3999583853354 433.5 Q 403.3999583853354 433.5 413.3999583853354 433.5 L 430.09993757800316 433.5" stroke-miterlimit="10" stroke-width="2"/></g></g></g></g><g transform="matrix(1,0,0,1,374,427)"><g transform="translate(6,0) matrix(1,0,0,1,0,0) translate(-6,0)"><path fill="none" stroke="none" d="M 0 0 L 22 0 L 22 14 L 0 14 Z"/><g><rect fill="rgb(255, 255, 255)" stroke="none" x="0" y="0" width="22" height="14"/></g></g><g transform="translate(6,0) matrix(1,0,0,1,0,0) translate(-6,0)"><path fill="none" stroke="none" d="M 0 0 L 22 0 L 22 14 L 0 14 Z"/><g><rect fill="rgb(0,0,0)" stroke="none" x="0" y="0" width="22" height="14" fill-opacity="0"/></g></g><g transform="translate(6,0) matrix(1,0,0,1,0,0) translate(-6,0)"><path fill="none" stroke="none" d="M 3 0 L 19 0 L 19 14 L 3 14 Z"/><g><rect fill="rgb(0,0,0)" stroke="none" x="3" y="0" width="16" height="14" fill-opacity="0"/></g></g><g transform="translate(6,0) matrix(1,0,0,1,0,0) translate(-6,0)"><path fill="none" stroke="none" d="M 3 0 L 19 0 L 19 14 L 3 14 Z"/><g><rect fill="rgb(0,0,0)" stroke="none" x="3" y="0" width="16" height="14" fill-opacity="0"/></g><text fill="rgb(0, 0, 0)" stroke="none" font-family="Arial" font-size="12px" font-style="normal" font-weight="normal" text-decoration="" line-height="14px" x="3" y="11">No</text></g></g><g transform="matrix(1,0,0,1,345.5,648)"><g transform="translate(0,0)"><g transform="translate(-348,-525) translate(2.5,-123) matrix(1,0,0,1,0,0)"><g><path fill="none" stroke="#000000" d="M 350 652.5 L 450 652.5 Q 460 652.5 470 652.5 L 560 652.5 Q 570 652.5 580 652.5 L 680 652.5" stroke-miterlimit="10" stroke-width="2"/></g></g></g></g><g transform="matrix(1,0,0,1,220.5,648)"><g transform="translate(0,0)"><g transform="translate(-247,-529) translate(26.5,-119) matrix(1,0,0,1,0,0)"><g><path fill="none" stroke="#000000" d="M 250 652.5 L 245.83333333333331 652.5 Q 241.66666666666666 652.5 237.5 652.5 L 237.5 652.5 Q 233.33333333333334 652.5 229.16666666666669 652.5 L 225 652.5" stroke-miterlimit="10" stroke-width="2"/></g></g></g></g><g transform="matrix(1,0,0,1,295.5,155.50000000000003)"><g transform="translate(0,0)"><g transform="translate(-636,-230) translate(340.5,74.49999999999997) matrix(1,0,0,1,0,0)"><g><path fill="none" stroke="#000000" d="M 580 160.00000000000003 L 310 160.00000000000003 Q 300 160.00000000000003 300 170.00000000000003 L 300 265" stroke-miterlimit="10" stroke-width="2"/></g></g></g></g><g transform="matrix(1,0,0,1,452,153)"><g transform="translate(6,0) matrix(1,0,0,1,0,0) translate(-6,0)"><path fill="none" stroke="none" d="M 0 0 L 26 0 L 26 14 L 0 14 Z"/><g><rect fill="rgb(255, 255, 255)" stroke="none" x="0" y="0" width="26" height="14"/></g></g><g transform="translate(6,0) matrix(1,0,0,1,0,0) translate(-6,0)"><path fill="none" stroke="none" d="M 0 0 L 26 0 L 26 14 L 0 14 Z"/><g><rect fill="rgb(0,0,0)" stroke="none" x="0" y="0" width="26" height="14" fill-opacity="0"/></g></g><g transform="translate(6,0) matrix(1,0,0,1,0,0) translate(-6,0)"><path fill="none" stroke="none" d="M 3 0 L 23 0 L 23 14 L 3 14 Z"/><g><rect fill="rgb(0,0,0)" stroke="none" x="3" y="0" width="20" height="14" fill-opacity="0"/></g></g><g transform="translate(6,0) matrix(1,0,0,1,0,0) translate(-6,0)"><path fill="none" stroke="none" d="M 3 0 L 23 0 L 23 14 L 3 14 Z"/><g><rect fill="rgb(0,0,0)" stroke="none" x="3" y="0" width="20" height="14" fill-opacity="0"/></g><text fill="rgb(0, 0, 0)" stroke="none" font-family="Arial" font-size="12px" font-style="normal" font-weight="normal" text-decoration="" line-height="14px" x="3" y="11">Yes</text></g></g><g transform="matrix(1,0,0,1,525.5,273)"><g transform="translate(0,0)"><g transform="translate(-536,-422) translate(10.5,149) matrix(1,0,0,1,0,0)"><g><path fill="none" stroke="#000000" d="M 530 421.9669914110089 L 645 421.9669914110089 Q 655 421.9669914110089 655 411.9669914110089 L 655 287.5 Q 655 277.5 665 277.5 L 780 277.5" stroke-miterlimit="10" stroke-width="2"/></g></g></g></g><g transform="matrix(1,0,0,1,554,382)"><g transform="translate(6,0) matrix(1,0,0,1,0,0) translate(-6,0)"><path fill="none" stroke="none" d="M 0 0 L 203 0 L 203 14 L 0 14 Z"/><g><rect fill="rgb(255, 255, 255)" stroke="none" x="0" y="0" width="203" height="14"/></g></g><g transform="translate(6,0) matrix(1,0,0,1,0,0) translate(-6,0)"><path fill="none" stroke="none" d="M 0 0 L 203 0 L 203 14 L 0 14 Z"/><g><rect fill="rgb(0,0,0)" stroke="none" x="0" y="0" width="203" height="14" fill-opacity="0"/></g></g><g transform="translate(6,0) matrix(1,0,0,1,0,0) translate(-6,0)"><path fill="none" stroke="none" d="M 3 0 L 200 0 L 200 14 L 3 14 Z"/><g><rect fill="rgb(0,0,0)" stroke="none" x="3" y="0" width="197" height="14" fill-opacity="0"/></g></g><g transform="translate(6,0) matrix(1,0,0,1,0,0) translate(-6,0)"><path fill="none" stroke="none" d="M 3 0 L 200 0 L 200 14 L 3 14 Z"/><g><rect fill="rgb(0,0,0)" stroke="none" x="3" y="0" width="197" height="14" fill-opacity="0"/></g><text fill="rgb(0, 0, 0)" stroke="none" font-family="Arial" font-size="12px" font-style="normal" font-weight="normal" text-decoration="" line-height="14px" x="3" y="11">Invoke</text><text fill="rgb(0, 0, 0)" stroke="none" font-family="Arial" font-size="12px" font-style="normal" font-weight="normal" text-decoration="" line-height="14px" x="42" y="11">after</text><text fill="rgb(0, 0, 0)" stroke="none" font-family="Arial" font-size="12px" font-style="normal" font-weight="normal" text-decoration="" line-height="14px" x="69" y="11">collection</text><text fill="rgb(0, 0, 0)" stroke="none" font-family="Arial" font-size="12px" font-style="normal" font-weight="normal" text-decoration="" line-height="14px" x="124" y="11">machines</text><text fill="rgb(0, 0, 0)" stroke="none" font-family="Arial" font-size="12px" font-style="normal" font-weight="normal" text-decoration="" line-height="14px" x="180" y="11">info</text></g></g><g transform="translate(0,0) matrix(1,0,0,1,780,354.5)"><g><g transform="translate(0,0) scale(1.6,0.83)"><g><g transform="scale(0.625,1.2048192771084338)"><path fill="#FFFFFF" stroke="none" d="M 0 0 L 160 0 L 160 83 L 0 83 L 0 0 Z M 10 0 L 10 83 M 150 0 L 150 83 Z"/><path fill="none" stroke="#333333" d="M 0 0 M 0 0 L 160 0 L 160 83 L 0 83 L 0 0 Z M 10 0 L 10 83 M 150 0 L 150 83 Z" stroke-miterlimit="10" stroke-width="2"/></g></g></g></g></g><g transform="matrix(1,0,0,1,791,368)"><g transform="translate(30,0) matrix(1,0,0,1,0,0) translate(-30,0)"><g><rect fill="rgb(0,0,0)" stroke="none" x="0" y="0" width="139" height="56" fill-opacity="0"/></g></g><g transform="translate(30,0) matrix(1,0,0,1,0,0) translate(-30,0)"><g><rect fill="rgb(0,0,0)" stroke="none" x="0" y="0" width="139" height="56" fill-opacity="0"/></g></g><g transform="translate(30,0) matrix(1,0,0,1,0,0) translate(-30,0)"><g><rect fill="rgb(0,0,0)" stroke="none" x="15" y="0" width="134" height="56" fill-opacity="0"/></g></g><g transform="translate(30,0) matrix(1,0,0,1,0,0) translate(-30,0)"><g><rect fill="rgb(0,0,0)" stroke="none" x="15" y="0" width="134" height="56" fill-opacity="0"/></g><text fill="rgb(0, 0, 0)" stroke="none" font-family="Arial" font-size="12px" font-style="normal" font-weight="normal" text-decoration="" line-height="14px" x="15" y="11">Iterate</text><text fill="rgb(0, 0, 0)" stroke="none" font-family="Arial" font-size="12px" font-style="normal" font-weight="normal" text-decoration="" line-height="14px" x="52" y="11">through</text><text fill="rgb(0, 0, 0)" stroke="none" font-family="Arial" font-size="12px" font-style="normal" font-weight="normal" text-decoration="" line-height="14px" x="97" y="11">each</text><text fill="rgb(0, 0, 0)" stroke="none" font-family="Arial" font-size="12px" font-style="normal" font-weight="normal" text-decoration="" line-height="14px" x="3" y="25">machine</text><text fill="rgb(0, 0, 0)" stroke="none" font-family="Arial" font-size="12px" font-style="normal" font-weight="normal" text-decoration="" line-height="14px" x="53" y="25">IP</text><text fill="rgb(0, 0, 0)" stroke="none" font-family="Arial" font-size="12px" font-style="normal" font-weight="normal" text-decoration="" line-height="14px" x="67" y="25">address</text><text fill="rgb(0, 0, 0)" stroke="none" font-family="Arial" font-size="12px" font-style="normal" font-weight="normal" text-decoration="" line-height="14px" x="114" y="25">and</text><text fill="rgb(0, 0, 0)" stroke="none" font-family="Arial" font-size="12px" font-style="normal" font-weight="normal" text-decoration="" line-height="14px" x="3" y="39">collect</text><text fill="rgb(0, 0, 0)" stroke="none" font-family="Arial" font-size="12px" font-style="normal" font-weight="normal" text-decoration="" line-height="14px" x="41" y="39">installed</text><text fill="rgb(0, 0, 0)" stroke="none" font-family="Arial" font-size="12px" font-style="normal" font-weight="normal" text-decoration="" line-height="14px" x="90" y="39">software</text><text fill="rgb(0, 0, 0)" stroke="none" font-family="Arial" font-size="12px" font-style="normal" font-weight="normal" text-decoration="" line-height="14px" x="62" y="53">list</text></g></g><g transform="matrix(1,0,0,1,855.5,300.5)"><g transform="translate(0,0)"><g transform="translate(-856,-324) translate(0.5,23.5) matrix(1,0,0,1,0,0)"><g><path fill="none" stroke="#000000" d="M 860 305 L 860 313.25 Q 860 321.5 860 329.75 L 860 329.75 Q 860 338 860 346.25 L 860 354.5" stroke-miterlimit="10" stroke-width="2"/></g></g></g></g><g transform="translate(0,0) matrix(1,0,0,1,770,475)"><g><g transform="translate(0,0) scale(1.8,1.1)"><g><g transform="scale(0.5555555555555556,0.9090909090909091)"><path fill="#FFFFFF" stroke="none" d="M 0 0 L 180 0 L 90 110.00000000000001 L 0 0 Z"/><path fill="none" stroke="#333333" d="M 0 0 M 0 0 L 180 0 L 90 110.00000000000001 L 0 0 Z" stroke-miterlimit="10" stroke-width="2"/></g></g></g></g></g><g transform="matrix(1,0,0,1,782,509)"><g transform="translate(154,126) matrix(1,0,0,1,0,0) translate(-154,-126)"><g><rect fill="rgb(0,0,0)" stroke="none" x="0" y="0" width="158" height="42" fill-opacity="0"/></g></g><g transform="translate(154,126) matrix(1,0,0,1,0,0) translate(-154,-126)"><g><rect fill="rgb(0,0,0)" stroke="none" x="0" y="0" width="158" height="14" fill-opacity="0"/></g></g><g transform="translate(154,126) matrix(1,0,0,1,0,0) translate(-154,-126)"><g><rect fill="rgb(0,0,0)" stroke="none" x="13" y="0" width="132" height="14" fill-opacity="0"/></g></g><g transform="translate(154,126) matrix(1,0,0,1,0,0) translate(-154,-126)"><g><rect fill="rgb(0,0,0)" stroke="none" x="13" y="0" width="132" height="14" fill-opacity="0"/></g><text fill="rgb(0, 0, 0)" stroke="none" font-family="Arial" font-size="12px" font-style="normal" font-weight="normal" text-decoration="" line-height="14px" x="13" y="11">Update</text><text fill="rgb(0, 0, 0)" stroke="none" font-family="Arial" font-size="12px" font-style="normal" font-weight="normal" text-decoration="" line-height="14px" x="56" y="11">machines</text><text fill="rgb(0, 0, 0)" stroke="none" font-family="Arial" font-size="12px" font-style="normal" font-weight="normal" text-decoration="" line-height="14px" x="112" y="11">status</text></g><g transform="translate(154,126) matrix(1,0,0,1,0,0) translate(-154,-126)"><g><rect fill="rgb(0,0,0)" stroke="none" x="0" y="14" width="158" height="14" fill-opacity="0"/></g></g><g transform="translate(154,126) matrix(1,0,0,1,0,0) translate(-154,-126)"><g><rect fill="rgb(0,0,0)" stroke="none" x="42" y="14" width="74" height="14" fill-opacity="0"/></g></g><g transform="translate(154,126) matrix(1,0,0,1,0,0) translate(-154,-126)"><g><rect fill="rgb(0,0,0)" stroke="none" x="42" y="14" width="74" height="14" fill-opacity="0"/></g><text fill="rgb(0, 0, 0)" stroke="none" font-family="Arial" font-size="12px" font-style="normal" font-weight="normal" text-decoration="" line-height="14px" x="42" y="25">Online</text><text fill="rgb(0, 0, 0)" stroke="none" font-family="Arial" font-size="12px" font-style="normal" font-weight="normal" text-decoration="" line-height="14px" x="78" y="25">/</text><text fill="rgb(0, 0, 0)" stroke="none" font-family="Arial" font-size="12px" font-style="normal" font-weight="normal" text-decoration="" line-height="14px" x="81" y="25">Offline</text></g><g transform="translate(154,126) matrix(1,0,0,1,0,0) translate(-154,-126)"><g><rect fill="rgb(0,0,0)" stroke="none" x="0" y="28" width="158" height="14" fill-opacity="0"/></g></g><g transform="translate(154,126) matrix(1,0,0,1,0,0) translate(-154,-126)"><g><rect fill="rgb(0,0,0)" stroke="none" x="22" y="28" width="114" height="14" fill-opacity="0"/></g></g><g transform="translate(154,126) matrix(1,0,0,1,0,0) translate(-154,-126)"><g><rect fill="rgb(0,0,0)" stroke="none" x="22" y="28" width="114" height="14" fill-opacity="0"/></g><text fill="rgb(0, 0, 0)" stroke="none" font-family="Arial" font-size="12px" font-style="normal" font-weight="normal" text-decoration="" line-height="14px" x="22" y="39">Installed</text><text fill="rgb(0, 0, 0)" stroke="none" font-family="Arial" font-size="12px" font-style="normal" font-weight="normal" text-decoration="" line-height="14px" x="71" y="39">software</text><text fill="rgb(0, 0, 0)" stroke="none" font-family="Arial" font-size="12px" font-style="normal" font-weight="normal" text-decoration="" line-height="14px" x="120" y="39">list</text></g></g><g transform="matrix(1,0,0,1,855.5,433)"><g transform="translate(0,0)"><g transform="translate(-858,-430) translate(2.5,-3) matrix(1,0,0,1,0,0)"><g><path fill="none" stroke="#000000" d="M 860 437.5 L 860 443.75 Q 860 450 860 456.25 L 860 456.25 Q 860 462.5 860 468.75 L 860 475" stroke-miterlimit="10" stroke-width="2"/></g></g></g></g><g transform="matrix(1,0,0,1,725.5,685.5)"><g transform="translate(0,0)"><g transform="translate(-731.3432835820895,-691.3432835820895) translate(5.843283582089498,5.843283582089498) matrix(1,0,0,1,0,0)"><g><path fill="none" stroke="#000000" d="M 730 690 L 730 696.6666666666667 Q 730 703.3333333333334 730 710 L 730 710 Q 730 716.6666666666666 730 723.3333333333333 L 730 730" stroke-miterlimit="10" stroke-width="2"/></g></g></g></g><g transform="translate(0,0) matrix(1,0,0,1,580,110.00000000000003)"><g><g transform="translate(0,0) scale(1,1)"><g><g transform="scale(1,1)"><path fill="#FFFFFF" stroke="none" d="M 50 0 L 100 50 L 50 100 L 0 50 L 50 0 Z"/><path fill="none" stroke="#333333" d="M 50 0 M 50 0 L 100 50 L 50 100 L 0 50 L 50 0 Z" stroke-miterlimit="10" stroke-width="2"/></g></g></g></g></g><g transform="matrix(1,0,0,1,590,139)"><g transform="translate(36,0) matrix(1,0,0,1,0,0) translate(-36,0)"><g><rect fill="rgb(0,0,0)" stroke="none" x="0" y="0" width="81" height="42" fill-opacity="0"/></g></g><g transform="translate(36,0) matrix(1,0,0,1,0,0) translate(-36,0)"><g><rect fill="rgb(0,0,0)" stroke="none" x="0" y="0" width="81" height="42" fill-opacity="0"/></g></g><g transform="translate(36,0) matrix(1,0,0,1,0,0) translate(-36,0)"><g><rect fill="rgb(0,0,0)" stroke="none" x="18" y="0" width="61" height="42" fill-opacity="0"/></g></g><g transform="translate(36,0) matrix(1,0,0,1,0,0) translate(-36,0)"><g><rect fill="rgb(0,0,0)" stroke="none" x="18" y="0" width="61" height="42" fill-opacity="0"/></g><text fill="rgb(0, 0, 0)" stroke="none" font-family="Arial" font-size="12px" font-style="normal" font-weight="normal" text-decoration="" line-height="14px" x="18" y="11">Validate</text><text fill="rgb(0, 0, 0)" stroke="none" font-family="Arial" font-size="12px" font-style="normal" font-weight="normal" text-decoration="" line-height="14px" x="21" y="25">licence</text><text fill="rgb(0, 0, 0)" stroke="none" font-family="Arial" font-size="12px" font-style="normal" font-weight="normal" text-decoration="" line-height="14px" x="10" y="39">information</text></g></g><g transform="matrix(1,0,0,1,625.5,80.5)"><g transform="translate(0,0)"><g transform="translate(-628.3582089552237,-83.5820895522388) translate(2.858208955223745,3.0820895522387985) matrix(1,0,0,1,0,0)"><g><path fill="none" stroke="#000000" d="M 630 85 L 630 89.16666666666667 Q 630 93.33333333333334 630 97.50000000000001 L 630 97.50000000000001 Q 630 101.66666666666669 630 105.83333333333336 L 630 110.00000000000003" stroke-miterlimit="10" stroke-width="2"/></g></g></g></g><g transform="translate(0,0) matrix(1,0,0,1,1190,135.00000000000006)"><g><g transform="translate(0,0) scale(1,0.5)"><g><g transform="scale(1,2)"><path fill="#FFFFFF" stroke="none" d="M 25 0 L 75 0 C 88.80711874576984 0 100 11.19288125423016 100 25 C 100 38.80711874576984 88.80711874576984 50 75 50 L 25 50 C 11.19288125423016 50 0 38.80711874576984 0 25 C 0 11.19288125423016 11.19288125423016 0 25 0 Z"/><path fill="none" stroke="#333333" d="M 25 0 M 25 0 L 75 0 C 88.80711874576984 0 100 11.19288125423016 100 25 C 100 38.80711874576984 88.80711874576984 50 75 50 L 25 50 C 11.19288125423016 50 0 38.80711874576984 0 25 C 0 11.19288125423016 11.19288125423016 0 25 0 Z" stroke-miterlimit="10" stroke-width="2"/></g></g></g></g></g><g transform="matrix(1,0,0,1,1200,153)"><g transform="translate(40,0) matrix(1,0,0,1,0,0) translate(-40,0)"><g><rect fill="rgb(0,0,0)" stroke="none" x="0" y="0" width="81" height="14" fill-opacity="0"/></g></g><g transform="translate(40,0) matrix(1,0,0,1,0,0) translate(-40,0)"><g><rect fill="rgb(0,0,0)" stroke="none" x="0" y="0" width="81" height="14" fill-opacity="0"/></g></g><g transform="translate(40,0) matrix(1,0,0,1,0,0) translate(-40,0)"><g><rect fill="rgb(0,0,0)" stroke="none" x="20" y="0" width="43" height="14" fill-opacity="0"/></g></g><g transform="translate(40,0) matrix(1,0,0,1,0,0) translate(-40,0)"><g><rect fill="rgb(0,0,0)" stroke="none" x="20" y="0" width="43" height="14" fill-opacity="0"/></g><text fill="rgb(0, 0, 0)" stroke="none" font-family="Arial" font-size="12px" font-style="normal" font-weight="normal" text-decoration="" line-height="14px" x="20" y="11">website</text></g></g><g transform="matrix(1,0,0,1,675.5,155.50000000000003)"><g transform="translate(0,0)"><g transform="translate(-679.1044776119402,-159.25373134328356) translate(3.604477611940183,3.7537313432835333) matrix(1,0,0,1,0,0)"><g><path fill="none" stroke="#000000" d="M 680 160.00000000000003 L 840 160.00000000000003 Q 850 160.00000000000003 860 160.00000000000003 L 1010 160.00000000000003 Q 1020 160.00000000000003 1030 160.00000000000003 L 1190 160.00000000000003" stroke-miterlimit="10" stroke-width="2"/></g></g></g></g><g transform="matrix(1,0,0,1,771,153)"><g transform="translate(6,0) matrix(1,0,0,1,0,0) translate(-6,0)"><path fill="none" stroke="none" d="M 0 0 L 238 0 L 238 14 L 0 14 Z"/><g><rect fill="rgb(255, 255, 255)" stroke="none" x="0" y="0" width="238" height="14"/></g></g><g transform="translate(6,0) matrix(1,0,0,1,0,0) translate(-6,0)"><path fill="none" stroke="none" d="M 0 0 L 238 0 L 238 14 L 0 14 Z"/><g><rect fill="rgb(0,0,0)" stroke="none" x="0" y="0" width="238" height="14" fill-opacity="0"/></g></g><g transform="translate(6,0) matrix(1,0,0,1,0,0) translate(-6,0)"><path fill="none" stroke="none" d="M 3 0 L 235 0 L 235 14 L 3 14 Z"/><g><rect fill="rgb(0,0,0)" stroke="none" x="3" y="0" width="232" height="14" fill-opacity="0"/></g></g><g transform="translate(6,0) matrix(1,0,0,1,0,0) translate(-6,0)"><path fill="none" stroke="none" d="M 3 0 L 235 0 L 235 14 L 3 14 Z"/><g><rect fill="rgb(0,0,0)" stroke="none" x="3" y="0" width="232" height="14" fill-opacity="0"/></g><text fill="rgb(0, 0, 0)" stroke="none" font-family="Arial" font-size="12px" font-style="normal" font-weight="normal" text-decoration="" line-height="14px" x="3" y="11">No</text><text fill="rgb(0, 0, 0)" stroke="none" font-family="Arial" font-size="12px" font-style="normal" font-weight="normal" text-decoration="" line-height="14px" x="22" y="11">goto</text><text fill="rgb(0, 0, 0)" stroke="none" font-family="Arial" font-size="12px" font-style="normal" font-weight="normal" text-decoration="" line-height="14px" x="49" y="11">site</text><text fill="rgb(0, 0, 0)" stroke="none" font-family="Arial" font-size="12px" font-style="normal" font-weight="normal" text-decoration="" line-height="14px" x="71" y="11">and</text><text fill="rgb(0, 0, 0)" stroke="none" font-family="Arial" font-size="12px" font-style="normal" font-weight="normal" text-decoration="" line-height="14px" x="95" y="11">register</text><text fill="rgb(0, 0, 0)" stroke="none" font-family="Arial" font-size="12px" font-style="normal" font-weight="normal" text-decoration="" line-height="14px" x="139" y="11">to</text><text fill="rgb(0, 0, 0)" stroke="none" font-family="Arial" font-size="12px" font-style="normal" font-weight="normal" text-decoration="" line-height="14px" x="152" y="11">get</text><text fill="rgb(0, 0, 0)" stroke="none" font-family="Arial" font-size="12px" font-style="normal" font-weight="normal" text-decoration="" line-height="14px" x="172" y="11">free</text><text fill="rgb(0, 0, 0)" stroke="none" font-family="Arial" font-size="12px" font-style="normal" font-weight="normal" text-decoration="" line-height="14px" x="196" y="11">licence</text></g></g></g></svg>